<?xml version="1.0" standalone="no"?>
<!DOCTYPE svg PUBLIC "-//W3C//DTD SVG 20010904//EN"
 "http://www.w3.org/TR/2001/REC-SVG-20010904/DTD/svg10.dtd">
<svg version="1.0" xmlns="http://www.w3.org/2000/svg"
 width="318.000000pt" height="318.000000pt" viewBox="0 0 318.000000 318.000000"
 preserveAspectRatio="xMidYMid meet">
<metadata>
Created by potrace 1.14, written by Peter Selinger 2001-2017
</metadata>
<g transform="translate(0.000000,318.000000) scale(0.100000,-0.100000)"
fill="#000000" stroke="none">
<path d="M1028 1845 c-42 -29 -68 -67 -49 -73 6 -2 11 -8 11 -14 0 -6 -7 -8
-15 -4 -9 3 -15 0 -15 -9 0 -8 5 -15 10 -15 6 0 10 -10 10 -22 0 -21 0 -21
-15 -2 -14 18 -14 16 -9 -16 15 -85 78 -140 161 -140 52 0 121 35 116 58 -2 7
2 11 9 9 18 -3 38 43 38 90 0 50 -8 75 -23 66 -6 -3 -7 -1 -3 5 4 6 2 21 -4
32 -33 62 -154 81 -222 35z m197 -55 c3 -5 1 -10 -4 -10 -6 0 -11 5 -11 10 0
6 2 10 4 10 3 0 8 -4 11 -10z m-205 -46 c0 -8 -4 -14 -10 -14 -5 0 -10 9 -10
21 0 11 5 17 10 14 6 -3 10 -13 10 -21z m220 6 c0 -11 -4 -20 -10 -20 -5 0
-10 9 -10 20 0 11 5 20 10 20 6 0 10 -9 10 -20z m-190 -16 c0 -8 -4 -14 -10
-14 -5 0 -10 9 -10 21 0 11 5 17 10 14 6 -3 10 -13 10 -21z m156 -11 c-11 -11
-19 6 -11 24 8 17 8 17 12 0 3 -10 2 -21 -1 -24z m-26 2 c0 -8 -7 -15 -15 -15
-8 0 -15 7 -15 15 0 8 7 15 15 15 8 0 15 -7 15 -15z m-160 -48 c0 -5 -7 -4
-15 3 -8 7 -15 20 -15 29 1 13 3 13 15 -3 8 -11 15 -24 15 -29z m211 0 c-8 -8
-11 -5 -11 9 0 27 14 41 18 19 2 -9 -1 -22 -7 -28z m-181 2 c0 -11 -4 -17 -10
-14 -5 3 -10 15 -10 26 0 11 5 17 10 14 6 -3 10 -15 10 -26z m156 -6 c-11 -11
-19 6 -11 24 8 17 8 17 12 0 3 -10 2 -21 -1 -24z m-118 3 c3 -12 -1 -17 -10
-14 -7 3 -15 13 -16 22 -3 12 1 17 10 14 7 -3 15 -13 16 -22z m92 14 c0 -5 -4
-10 -10 -10 -5 0 -10 5 -10 10 0 6 5 10 10 10 6 0 10 -4 10 -10z m-190 -36 c0
-8 -4 -12 -10 -9 -5 3 -10 13 -10 21 0 8 5 12 10 9 6 -3 10 -13 10 -21z m135
16 c3 -5 -1 -10 -9 -10 -9 0 -16 5 -16 10 0 6 4 10 9 10 6 0 13 -4 16 -10z
m-105 -25 c0 -8 -2 -15 -4 -15 -2 0 -6 7 -10 15 -3 8 -1 15 4 15 6 0 10 -7 10
-15z m214 0 c-4 -8 -8 -15 -10 -15 -2 0 -4 7 -4 15 0 8 4 15 10 15 5 0 7 -7 4
-15z m-174 -10 c0 -8 -4 -15 -9 -15 -5 0 -11 7 -15 15 -3 9 0 15 9 15 8 0 15
-7 15 -15z m30 0 c0 -8 -4 -15 -10 -15 -5 0 -10 7 -10 15 0 8 5 15 10 15 6 0
10 -7 10 -15z m40 -11 c0 -8 -4 -14 -9 -14 -11 0 -22 26 -14 34 9 9 23 -3 23
-20z m-30 -34 c0 -5 -2 -10 -4 -10 -3 0 -8 5 -11 10 -3 6 -1 10 4 10 6 0 11
-4 11 -10z m30 0 c0 -5 -4 -10 -10 -10 -5 0 -10 5 -10 10 0 6 5 10 10 10 6 0
10 -4 10 -10z"/>
<path d="M1382 1850 c-48 -29 -72 -75 -72 -138 0 -29 7 -66 15 -82 34 -66 112
-94 181 -65 25 10 40 12 42 5 10 -29 22 -4 22 45 0 30 -4 55 -10 55 -5 0 -10
-7 -10 -15 0 -30 -31 -75 -55 -81 -70 -17 -105 29 -105 138 0 86 23 132 68
136 43 4 79 -19 87 -58 10 -47 25 -35 25 20 0 46 -13 67 -22 38 -3 -8 -11 -7
-28 5 -33 23 -98 21 -138 -3z"/>
<path d="M1653 1858 c-56 -27 -50 -108 11 -150 80 -54 104 -96 74 -126 -18
-18 -63 -14 -81 6 -9 10 -20 33 -23 50 -11 55 -24 46 -24 -16 0 -55 2 -60 23
-60 12 0 40 -3 62 -7 50 -8 106 19 119 56 16 47 0 76 -70 126 -58 42 -65 51
-62 78 2 25 8 31 31 33 35 4 64 -19 72 -59 9 -42 25 -25 25 26 0 41 -14 69
-22 44 -3 -9 -9 -9 -25 0 -26 14 -80 13 -110 -1z"/>
<path d="M1863 1850 c25 -16 26 -244 0 -272 -15 -17 -14 -18 27 -18 37 0 41 2
28 13 -12 9 -17 37 -20 115 -3 56 -1 102 3 102 4 0 29 -52 56 -115 26 -63 50
-115 54 -115 3 0 26 53 50 118 l44 117 3 -105 c2 -90 0 -107 -15 -117 -14 -11
-5 -13 58 -13 55 1 70 3 57 11 -16 9 -18 27 -18 144 0 119 2 134 18 138 9 3
-8 5 -38 6 l-56 1 -34 -90 c-18 -50 -36 -93 -40 -95 -3 -2 -22 38 -42 88 l-36
92 -58 3 c-45 1 -55 0 -41 -8z"/>
<path d="M1004 1514 c3 -9 6 -36 6 -60 0 -32 4 -44 15 -44 12 0 15 13 15 60 0
54 -2 60 -21 60 -15 0 -19 -4 -15 -16z"/>
<path d="M1060 1470 c0 -33 4 -60 9 -60 6 0 7 17 5 38 l-5 37 34 -37 c19 -21
37 -38 41 -38 3 0 6 27 6 60 0 33 -4 60 -10 60 -5 0 -7 -14 -4 -32 l6 -33 -31
33 c-18 17 -36 32 -42 32 -5 0 -9 -27 -9 -60z"/>
<path d="M1160 1509 c0 -19 2 -20 16 -8 15 12 16 8 13 -39 -4 -50 -3 -52 21
-52 24 0 25 2 22 52 -3 49 -2 52 13 34 14 -19 15 -19 15 7 0 26 -2 27 -50 27
-44 0 -50 -2 -50 -21z"/>
<path d="M1268 1470 l-3 -60 43 0 c36 0 42 3 42 22 0 20 -1 21 -20 3 -19 -18
-20 -17 -20 4 0 12 4 19 10 16 6 -4 10 6 10 22 0 22 -2 25 -10 13 -8 -12 -10
-10 -10 9 0 23 1 24 20 6 19 -18 20 -17 20 3 0 19 -6 22 -39 22 l-39 0 -4 -60z"/>
<path d="M1365 1470 c0 -56 2 -60 23 -60 19 0 21 4 16 25 -8 32 4 33 16 1 7
-19 16 -24 40 -24 30 1 32 3 28 36 l-4 35 31 -36 c18 -20 35 -37 39 -37 3 0 6
14 6 30 0 17 -4 30 -10 30 -5 0 -22 14 -37 30 -14 17 -30 30 -35 30 -4 0 -8
-22 -8 -50 0 -27 -4 -50 -10 -50 -11 0 -14 19 -11 61 2 27 -17 39 -64 39 -18
0 -20 -7 -20 -60z m55 25 c0 -8 -4 -15 -10 -15 -5 0 -10 7 -10 15 0 8 5 15 10
15 6 0 10 -7 10 -15z"/>
<path d="M1541 1523 c0 -5 4 -17 9 -28 8 -18 9 -17 9 8 1 15 -3 27 -9 27 -5 0
-10 -3 -9 -7z"/>
<path d="M1605 1510 c-3 -11 -3 -25 1 -31 4 -7 3 -9 -3 -6 -6 4 -15 -5 -22
-19 -15 -33 -14 -44 3 -44 9 0 12 7 9 21 -5 17 -2 20 13 17 11 -2 18 -11 18
-21 -1 -12 6 -17 23 -17 27 0 27 -3 -5 77 -19 48 -28 53 -37 23z"/>
<path d="M1660 1509 c0 -19 2 -20 16 -8 15 12 16 8 13 -39 -4 -50 -3 -52 21
-52 24 0 25 3 23 52 -2 29 0 47 3 41 9 -20 24 -15 24 7 0 17 -7 20 -50 20 -44
0 -50 -2 -50 -21z"/>
<path d="M1768 1470 c-3 -55 -1 -60 17 -60 18 0 20 7 20 60 1 50 -2 60 -16 60
-14 0 -18 -12 -21 -60z"/>
<path d="M1837 1512 c-35 -38 -12 -102 37 -102 49 0 75 70 38 103 -24 22 -55
21 -75 -1z m63 -42 c0 -38 -25 -58 -39 -31 -14 26 -14 54 1 69 17 17 38 -4 38
-38z"/>
<path d="M1945 1470 c0 -33 3 -60 8 -60 4 0 7 16 7 37 l0 36 35 -39 c31 -36
34 -37 35 -16 0 24 -57 101 -75 102 -6 0 -10 -27 -10 -60z"/>
<path d="M2020 1514 c0 -8 5 -12 10 -9 6 3 10 10 10 16 0 5 -4 9 -10 9 -5 0
-10 -7 -10 -16z"/>
<path d="M2066 1477 c-31 -68 -30 -67 -11 -67 9 0 15 7 13 17 -2 10 4 19 15
21 12 2 17 -3 17 -17 0 -18 6 -21 43 -21 l42 0 0 60 c0 50 -3 60 -17 60 -13 0
-18 -11 -20 -52 l-3 -53 -27 55 -26 55 -26 -58z m24 -1 c0 -3 -4 -8 -10 -11
-5 -3 -10 -1 -10 4 0 6 5 11 10 11 6 0 10 -2 10 -4z"/>
<path d="M2212 1438 c-16 -16 -15 -28 3 -28 8 0 15 9 15 20 0 23 -2 24 -18 8z"/>
<path d="M1280 1366 c0 -2 7 -9 15 -16 9 -7 15 -8 15 -2 0 5 -7 12 -15 16 -8
3 -15 4 -15 2z"/>
<path d="M1325 1320 l0 -50 38 0 c27 0 37 4 37 15 0 13 -4 14 -20 5 -14 -7
-20 -7 -20 0 0 5 5 10 10 10 6 0 10 12 10 26 0 14 -4 23 -10 19 -5 -3 -10 -1
-10 4 0 15 13 14 29 -1 11 -11 13 -10 9 2 -3 9 -19 16 -39 18 l-34 3 0 -51z"/>
<path d="M1433 1355 c-47 -33 -8 -102 44 -80 16 7 15 9 -7 14 -18 5 -26 15
-28 34 -4 32 20 46 45 26 14 -12 16 -12 11 1 -7 21 -39 23 -65 5z"/>
<path d="M1516 1333 c3 -21 7 -44 10 -50 4 -16 36 -17 52 -1 13 13 17 88 4 88
-4 0 -6 -18 -4 -41 4 -36 2 -40 -14 -37 -15 3 -19 12 -18 41 1 29 -2 37 -17
37 -15 0 -17 -6 -13 -37z"/>
<path d="M1610 1336 c0 -19 -3 -41 -6 -50 -5 -12 0 -16 21 -16 21 0 26 4 21
17 -6 16 -6 16 12 0 10 -9 33 -17 50 -17 32 0 32 1 32 50 0 38 -4 50 -15 50
-11 0 -15 -11 -15 -40 0 -40 -12 -52 -27 -27 -4 6 -6 20 -4 31 3 22 -15 36
-46 36 -19 0 -23 -5 -23 -34z m50 3 c0 -5 -4 -9 -10 -9 -5 0 -10 7 -10 16 0 8
5 12 10 9 6 -3 10 -10 10 -16z"/>
<path d="M1750 1354 c0 -14 2 -15 17 -3 15 13 16 10 11 -33 -5 -42 -3 -48 13
-48 16 0 19 8 19 45 0 38 3 43 18 38 25 -8 42 -33 42 -60 0 -14 6 -23 15 -23
9 0 15 9 15 23 0 13 7 32 15 43 17 22 19 34 6 34 -5 0 -11 -9 -14 -21 -6 -23
-27 -17 -27 7 0 11 -15 14 -65 14 -53 0 -65 -3 -65 -16z"/>
<path d="M1252 1315 c0 -41 2 -45 23 -45 32 0 51 33 30 52 -28 26 -44 38 -49
38 -2 0 -4 -20 -4 -45z m33 -15 c3 -5 -1 -10 -9 -10 -9 0 -16 5 -16 10 0 6 4
10 9 10 6 0 13 -4 16 -10z"/>
</g>
</svg>
