<svg xmlns="http://www.w3.org/2000/svg" viewBox="0 0 531.57 171.15"><defs><style>.cls-1{fill:#2c5647;}.cls-2{fill:#bc691e;}</style></defs><title>Asset 7</title><g id="Layer_2" data-name="Layer 2"><g id="Layer_1-2" data-name="Layer 1"><path class="cls-1" d="M161.15,49.35l-30.43,72.29H153.9l3.51-9.57h22.53l3.51,9.57h23.18L176.2,49.35Zm-.43,49.3,7.95-27.32,8,27.32Z"/><path class="cls-1" d="M271.26,88.36a19.39,19.39,0,0,0,4.52-13.18,22.4,22.4,0,0,0-9.14-18.71,29,29,0,0,0-9.3-4.57,38.09,38.09,0,0,0-10.58-1.49H216.25v71.23h19.88V93.36l19,28.28h24.24L259.73,95.49A22.83,22.83,0,0,0,271.26,88.36Zm-19-6.43a15.08,15.08,0,0,1-7.81,1.86,22.16,22.16,0,0,1-4.41-.42,29.13,29.13,0,0,1-3.88-1.07V69h8.29a18.69,18.69,0,0,1,7.81,1.44q3.14,1.44,3.14,5.79A6.17,6.17,0,0,1,252.23,81.93Z"/><polygon class="cls-1" points="330.01 80.18 299.61 49.35 292.59 49.35 292.59 121.64 312.47 121.64 312.47 86.56 327.04 103.03 332.99 103.03 347.56 86.56 347.56 121.64 367.44 121.64 367.44 49.35 360.42 49.35 330.01 80.18"/><path class="cls-1" d="M408.49,49.35l-30.42,72.29h23.17l3.51-9.57h22.54l3.51,9.57H454L423.55,49.35Zm-.42,49.3L416,71.33l8,27.32Z"/><path class="cls-1" d="M528.54,70.29A34.4,34.4,0,0,0,520.3,58.6a36.23,36.23,0,0,0-11.85-7.29,39.9,39.9,0,0,0-27.75,0,36.23,36.23,0,0,0-11.85,7.29,34.4,34.4,0,0,0-8.24,11.69,38.82,38.82,0,0,0-3,15.73,38.84,38.84,0,0,0,3,15.74,34.4,34.4,0,0,0,8.24,11.69,36,36,0,0,0,11.85,7.28,39.75,39.75,0,0,0,27.75,0,36,36,0,0,0,11.85-7.28,34.4,34.4,0,0,0,8.24-11.69,38.84,38.84,0,0,0,3-15.74A38.82,38.82,0,0,0,528.54,70.29ZM509,95.54a16.67,16.67,0,0,1-5.9,6.64,15.28,15.28,0,0,1-8.55,2.45,15.08,15.08,0,0,1-8.51-2.45,17.29,17.29,0,0,1-5.9-6.64,21.85,21.85,0,0,1,0-19,17.29,17.29,0,0,1,5.9-6.64,15.15,15.15,0,0,1,8.51-2.45,15.36,15.36,0,0,1,8.55,2.45,16.67,16.67,0,0,1,5.9,6.64,22.32,22.32,0,0,1,0,19Z"/><polygon class="cls-1" points="99.23 86.03 61.07 49.35 54.05 49.35 54.05 67.69 79.78 92.19 112.1 122.7 119.11 122.7 119.11 50.41 99.23 50.41 99.23 86.03"/><polygon class="cls-1" points="54.05 121.64 73.93 121.64 73.93 98.95 54.05 73.64 54.05 121.64"/><path class="cls-2" d="M87.84,119.15v28.33H92a59,59,0,0,0,37.15-15.75h-6.41A54.79,54.79,0,0,1,92,143.31V126Z"/><path class="cls-2" d="M99.08,12.74V0L94.91,4v8.18a72.31,72.31,0,0,0-8.09-.45,74.4,74.4,0,0,0-73.24,61.9H0L4,77.8h9a74.15,74.15,0,0,0,61.1,81.41v11.94l4.16-4v-7.34a74.09,74.09,0,0,0,65-25.43c.31-.36,2.17-2.29,2.48-2.65h-5.51a70.09,70.09,0,0,1-53.39,24.59,69.31,69.31,0,0,1-8.57-.54V143.07A55.06,55.06,0,0,1,29.3,91.57H39.83V87.4H25.12v4.17a59.25,59.25,0,0,0,49,55.11v8.47A70.41,70.41,0,0,1,16.52,86,72,72,0,0,1,17,77.8h12.5A55.07,55.07,0,0,1,81.13,28.74V46.07l4.16,6.83V24.57H81.13A59.26,59.26,0,0,0,25.9,73.63H17.64A70.25,70.25,0,0,1,94.91,16.2V29a55.15,55.15,0,0,1,45.47,35.17c.06.16,1.08,2.64,1.69,4.58l2.36-5.65A59.37,59.37,0,0,0,99.08,25.36V16.81a70.34,70.34,0,0,1,49,34.64l.71,1.27,1.95-4.67A74.42,74.42,0,0,0,99.08,12.74Z"/></g></g></svg>