<?xml version="1.0" encoding="UTF-8" standalone="no"?> <svg xmlns="http://www.w3.org/2000/svg" xmlns:xlink="http://www.w3.org/1999/xlink" xmlns:serif="http://www.serif.com/" width="100%" height="100%" viewBox="0 0 2290 531" xml:space="preserve" style="fill-rule:evenodd;clip-rule:evenodd;stroke-linejoin:round;stroke-miterlimit:1.41421;"> <g transform="matrix(1,0,0,1,-153.269,-293.51)"> <g transform="matrix(4.16667,0,0,4.16667,0,0)"> <g transform="matrix(1,0,0,1,51.7476,108.109)"> <path d="M0,51.944C-3.268,46.096 -4.3,42.656 -4.3,37.668C-4.3,32.68 -2.58,28.896 0.516,25.284L11.352,12.729C15.652,7.741 17.544,3.613 17.544,-4.643C17.544,-12.727 14.792,-17.027 7.052,-17.027L-14.963,-17.027L-14.963,-35.947L15.48,-35.947C35.775,-35.947 43.343,-26.487 43.343,-7.739C43.343,4.129 39.387,11.869 33.196,19.78L25.972,28.896C22.875,32.852 21.5,34.228 21.5,36.464C21.5,38.872 22.532,41.28 26.832,48.676L49.879,87.891L20.124,87.891L0,51.944Z" style="fill:rgb(31,67,145);fill-rule:nonzero;"></path> </g> </g> <g transform="matrix(4.16667,0,0,4.16667,0,0)"> <g transform="matrix(1,0,0,1,153.398,145.432)"> <path d="M0,-22.703C0,-29.411 0,-36.119 -0.344,-42.655C-0.86,-51.427 -3.784,-54.35 -8.428,-54.35L-9.804,-54.35C-14.448,-54.35 -17.372,-51.427 -17.888,-42.655C-18.231,-36.119 -18.231,-29.411 -18.231,-22.703L-18.231,0C-18.231,6.708 -18.231,13.416 -17.888,19.952C-17.372,28.724 -14.448,31.648 -9.804,31.648L-8.428,31.648C-3.784,31.648 -0.86,28.724 -0.344,19.952C0,13.416 0,6.708 0,0L0,-22.703ZM25.8,-29.583L25.8,6.88C25.8,10.148 25.8,12.9 25.284,21.328C23.908,43.344 9.804,52.287 -6.536,52.287L-11.696,52.287C-28.036,52.287 -42.139,43.344 -43.515,21.328C-44.031,12.9 -44.031,10.148 -44.031,6.88L-44.031,-29.583C-44.031,-32.851 -44.031,-35.603 -43.515,-44.031C-42.139,-66.047 -28.036,-74.99 -11.696,-74.99L-6.536,-74.99C9.804,-74.99 23.908,-66.047 25.284,-44.031C25.8,-35.603 25.8,-32.851 25.8,-29.583" style="fill:rgb(31,67,145);fill-rule:nonzero;"></path> </g> </g> <g transform="matrix(4.16667,0,0,4.16667,0,0)"> <g transform="matrix(1,0,0,1,219.789,196.86)"> <path d="M0,-124.698L0,-95.286C0,-83.247 0.859,-72.067 2.752,-59.683L8.256,-24.424C8.428,-23.392 8.771,-22.36 9.804,-22.36C10.835,-22.36 11.18,-23.392 11.352,-24.424L16.512,-57.963C18.575,-71.895 19.607,-83.247 19.607,-95.286L19.607,-124.698L45.406,-124.698L45.406,-96.835C45.406,-85.138 44.375,-70.863 42.311,-60.371L34.398,-18.92C31.819,-4.988 25.799,0 15.308,0L4.987,0C-5.332,0 -11.008,-4.816 -13.76,-18.404L-21.672,-58.651C-23.908,-70.175 -25.112,-83.591 -25.112,-96.835L-25.112,-124.698L0,-124.698Z" style="fill:rgb(227,30,37);fill-rule:nonzero;"></path> </g> </g> <g transform="matrix(4.16667,0,0,4.16667,0,0)"> <g transform="matrix(1,0,0,1,0,-523.838)"> <rect x="280.849" y="596" width="25.8" height="123.838" style="fill:rgb(227,30,37);"></rect> </g> </g> <g transform="matrix(4.16667,0,0,4.16667,0,0)"> <g transform="matrix(1,0,0,1,319.202,91.0821)"> <path d="M0,85.998L23.22,85.998C31.476,85.998 34.056,82.042 34.056,72.754C34.056,64.671 30.1,57.619 19.952,48.159C7.052,36.119 1.032,26.831 1.032,12.384C1.032,-7.568 9.804,-18.92 30.1,-18.92L55.899,-18.92L55.899,0L35.432,0C29.412,0 26.832,2.924 26.832,11.18C26.832,20.295 29.239,23.907 38.872,33.367C54.352,48.503 59.855,56.587 59.855,74.13C59.855,94.426 48.331,104.918 27.691,104.918L0,104.918L0,85.998Z" style="fill:rgb(227,30,37);fill-rule:nonzero;"></path> </g> </g> <g transform="matrix(4.16667,0,0,4.16667,0,0)"> <g transform="matrix(1,0,0,1,0,-523.838)"> <rect x="391.958" y="596" width="25.8" height="123.838" style="fill:rgb(227,30,37);"></rect> </g> </g> <g transform="matrix(4.16667,0,0,4.16667,0,0)"> <g transform="matrix(1,0,0,1,476.751,145.432)"> <path d="M0,-22.703C0,-29.411 0,-36.119 -0.344,-42.655C-0.86,-51.427 -3.784,-54.35 -8.428,-54.35L-9.804,-54.35C-14.448,-54.35 -17.372,-51.427 -17.888,-42.655C-18.231,-36.119 -18.231,-29.411 -18.231,-22.703L-18.231,0C-18.231,6.708 -18.231,13.416 -17.888,19.952C-17.372,28.724 -14.448,31.648 -9.804,31.648L-8.428,31.648C-3.784,31.648 -0.86,28.724 -0.344,19.952C0,13.416 0,6.708 0,0L0,-22.703ZM25.8,-29.583L25.8,6.88C25.8,10.148 25.8,12.9 25.283,21.328C23.907,43.344 9.804,52.287 -6.536,52.287L-11.696,52.287C-28.035,52.287 -42.14,43.344 -43.516,21.328C-44.031,12.9 -44.031,10.148 -44.031,6.88L-44.031,-29.583C-44.031,-32.851 -44.031,-35.603 -43.516,-44.031C-42.14,-66.047 -28.035,-74.99 -11.696,-74.99L-6.536,-74.99C9.804,-74.99 23.907,-66.047 25.283,-44.031C25.8,-35.603 25.8,-32.851 25.8,-29.583" style="fill:rgb(227,30,37);fill-rule:nonzero;"></path> </g> </g> <g transform="matrix(4.16667,0,0,4.16667,0,0)"> <g transform="matrix(1,0,0,1,517.515,196)"> <path d="M0,-123.838L42.14,-123.838C60.371,-123.838 66.907,-116.786 68.11,-100.79C68.799,-92.191 68.799,-84.107 68.799,-74.475L68.799,0L42.999,0L42.999,-70.863C42.999,-80.15 42.999,-85.654 42.483,-93.395C41.795,-103.198 39.043,-104.918 32.507,-104.918L25.8,-104.918L25.8,0L0,0L0,-123.838Z" style="fill:rgb(227,30,37);fill-rule:nonzero;"></path> </g> </g> </g> </svg> 